Coordinates
version=1
nRows=16
nColumns=22
inDegrees=yes

Units are S.I. units (second, meters, Newtons, ...)
If the header above contains a line with 'inDegrees', this indicates whether rotational values are in degrees (yes) or radians (no).

endheader
time	pelvis_tilt	pelvis_list	pelvis_rotation	pelvis_tx	pelvis_ty	pelvis_tz	hip_flexion_r	hip_adduction_r	hip_rotation_r	knee_angle_r	ankle_angle_r	subtalar_angle_r	hip_flexion_l	hip_adduction_l	hip_rotation_l	knee_angle_l	ankle_angle_l	subtalar_angle_l	lumbar_extension	lumbar_bending	lumbar_rotation
      3.21000000	      3.36929003	      3.67386502	     83.50277198	     -0.21289795	      1.00730434	     -0.57621913	     -4.49197838	      4.19651863	     -4.21107197	    -29.67365325	     14.09360860	      5.19526634	     15.21498639	     -2.50993645	     -9.99622959	    -23.95450183	      6.67520295	     -6.51368279	    -12.80553411	      2.98343426	      1.87058674
      3.22000000	      3.07216920	      3.61456401	     83.29826894	     -0.21362189	      1.00765747	     -0.58049887	     -3.45130800	      3.70600466	     -3.99086719	    -31.75496665	     13.58053451	      5.39740469	     14.84863997	     -2.14053572	    -10.29313530	    -23.64861545	      6.80878929	     -6.55760207	    -12.66803720	      2.64572075	      1.80836095
      3.23000000	      2.81558270	      3.44847939	     83.13890110	     -0.21433960	      1.00773777	     -0.58456347	     -2.25621550	      3.28083931	     -3.81697397	    -33.85280525	     13.09655881	      5.68056774	     14.65385694	     -1.82767941	    -10.53763518	    -23.41579393	      7.00810059	     -6.62593046	    -12.42780664	      2.37273172	      1.71253024
      3.24000000	      2.53897404	      3.37026334	     82.99901247	     -0.21502184	      1.00791030	     -0.58849515	     -1.15437212	      2.83012612	     -3.67005872	    -35.87717301	     12.66749982	      5.78167602	     14.36212563	     -1.48149809	    -10.78243441	    -23.14717137	      7.14487064	     -6.66172048	    -12.30218909	      2.05841291	      1.59348037
      3.25000000	      2.25694469	      3.32979502	     82.88527234	     -0.21565411	      1.00810365	     -0.59229465	     -0.10576255	      2.38802857	     -3.51230508	    -37.78985979	     12.31482342	      5.78424807	     14.03353005	     -1.12175286	    -11.00129573	    -22.85704918	      7.25458282	     -6.68151295	    -12.22873893	      1.72669409	      1.40731879
      3.26000000	      1.99995810	      3.26100279	     82.80908175	     -0.21630147	      1.00818496	     -0.59591816	      0.96758442	      1.97901714	     -3.40541680	    -39.59072236	     12.11006104	      5.71557213	     13.76956605	     -0.79149933	    -11.19491367	    -22.60483798	      7.39512213	     -6.70156832	    -12.14049989	      1.43149946	      1.21008940
      3.27000000	      1.78464008	      3.14557255	     82.77067737	     -0.21693609	      1.00814577	     -0.59936880	      2.07057321	      1.62832084	     -3.34369303	    -41.23972537	     12.03961776	      5.54006770	     13.59589856	     -0.51469413	    -11.35515599	    -22.41056350	      7.56478480	     -6.72576599	    -12.01445055	      1.18970030	      0.97508738
      3.28000000	      1.56554488	      3.14133008	     82.74186848	     -0.21756922	      1.00831024	     -0.60272394	      3.00626339	      1.26742020	     -3.26948541	    -42.67014678	     12.12975292	      5.35385725	     13.27667318	     -0.20861274	    -11.49294716	    -22.14744420	      7.67240390	     -6.72759136	    -12.02506583	      0.92889088	      0.72752469
      3.29000000	      1.38441311	      3.09647667	     82.74092616	     -0.21820867	      1.00840872	     -0.60593031	      3.94889135	      0.95783653	     -3.22616209	    -43.89767170	     12.34379108	      5.10511653	     13.02950761	      0.05008484	    -11.60785885	    -21.92459622	      7.78587944	     -6.73087231	    -11.99987540	      0.72161835	      0.46091947
      3.30000000	      1.24450747	      3.05984164	     82.76389314	     -0.21886045	      1.00855682	     -0.60901449	      4.82833976	      0.69769154	     -3.20205632	    -44.88915848	     12.64120817	      4.84855416	     12.78259284	      0.26875997	    -11.69448447	    -21.70937821	      7.90554142	     -6.73251018	    -11.99623089	      0.56594304	      0.18252030
      3.31000000	      1.14425407	      3.03027638	     82.80163900	     -0.21950503	      1.00876767	     -0.61198005	      5.64230758	      0.48717245	     -3.18511489	    -45.63904501	     12.99080429	      4.60348319	     12.53351737	      0.44802562	    -11.75484233	    -21.49679041	      8.01136689	     -6.73372102	    -12.01109705	      0.45947145	     -0.10251955
      3.32000000	      1.08080787	      3.00789359	     82.84851125	     -0.22012675	      1.00905257	     -0.61485430	      6.38595011	      0.32267990	     -3.17436617	    -46.14595107	     13.36403351	      4.38788550	     12.27404903	      0.59025517	    -11.79155995	    -21.27619035	      8.11173299	     -6.73613068	    -12.03890457	      0.39694124	     -0.38984704
      3.33000000	      1.05464568	      2.99095330	     82.90362550	     -0.22072757	      1.00940827	     -0.61762928	      7.06125733	      0.20317822	     -3.17401422	    -46.41721040	     13.73376689	      4.21243429	     12.00476540	      0.69527972	    -11.80658426	    -21.04377263	      8.19970253	     -6.74045764	    -12.08091043	      0.37781991	     -0.66695043
      3.34000000	      1.06166256	      2.97367090	     82.96195032	     -0.22129848	      1.00981469	     -0.62029235	      7.67944488	      0.12779756	     -3.17310453	    -46.47223620	     14.08257920	      4.06664251	     11.73563308	      0.76689664	    -11.78854252	    -20.80576131	      8.28177141	     -6.74846048	    -12.13165091	      0.39589514	     -0.92573844
      3.35000000	      1.10870130	      2.97060464	     83.01298900	     -0.22182941	      1.01029356	     -0.62286850	      8.22001677	      0.10131978	     -3.16435950	    -46.31821007	     14.41297438	      3.99969390	     11.44630621	      0.79356553	    -11.77551154	    -20.56035231	      8.36555764	     -6.74801733	    -12.20783697	      0.45824039	     -1.15154512
      3.36000000	      1.14605782	      2.94612940	     83.08846838	     -0.22237505	      1.01076277	     -0.62535977	      8.73949551	      0.05714028	     -3.20566539	    -45.99723244	     14.69552676	      3.91030393	     11.18368208	      0.83096403	    -11.74698673	    -20.30269658	      8.40664756	     -6.75483981	    -12.26013404	      0.51554418	     -1.39212299
